<?xml version="1.0" standalone="yes"?>

<svg version="1.1" viewBox="0.0 0.0 471.0997375328084 419.59580052493436" fill="none" stroke="none" stroke-linecap="square" stroke-miterlimit="10" xmlns="http://www.w3.org/2000/svg" xmlns:xlink="http://www.w3.org/1999/xlink"><clipPath id="p.0"><path d="m0 0l471.09973 0l0 419.5958l-471.09973 0l0 -419.5958z" clip-rule="nonzero"></path></clipPath><g clip-path="url(#p.0)"><path fill="#000000" fill-opacity="0.0" d="m0 0l471.09973 0l0 419.5958l-471.09973 0z" fill-rule="nonzero"></path><path fill="#d5a6bd" d="m405.29422 353.22833l0 40.59845l-335.1811 0l0 -40.59845z" fill-rule="nonzero"></path><path stroke="#000000" stroke-width="1.0" stroke-linejoin="round" stroke-linecap="butt" d="m405.29422 353.22833l0 40.59845l-335.1811 0l0 -40.59845z" fill-rule="nonzero"></path><path fill="#a4c2f4" d="m405.29422 69.89076l39.3071 0l0 283.33856l-39.3071 0z" fill-rule="nonzero"></path><path stroke="#000000" stroke-width="1.0" stroke-linejoin="round" stroke-linecap="butt" d="m405.29422 69.89076l39.3071 0l0 283.33856l-39.3071 0z" fill-rule="nonzero"></path><path fill="#b4a7d6" d="m405.29422 353.22833l39.3071 0l0 40.59845l-39.3071 0z" fill-rule="nonzero"></path><path stroke="#000000" stroke-width="1.0" stroke-linejoin="round" stroke-linecap="butt" d="m405.29422 353.22833l39.3071 0l0 40.59845l-39.3071 0z" fill-rule="nonzero"></path><path fill="#999999" d="m30.807415 353.22833l39.307087 0l0 40.59845l-39.307087 0z" fill-rule="nonzero"></path><path stroke="#000000" stroke-width="1.0" stroke-linejoin="round" stroke-linecap="butt" d="m30.807415 353.22833l39.307087 0l0 40.59845l-39.307087 0z" fill-rule="nonzero"></path><path fill="#f9cb9c" d="m405.20856 29.272966l0 40.598427l-335.1811 0l0 -40.598427z" fill-rule="nonzero"></path><path stroke="#000000" stroke-width="1.0" stroke-linejoin="round" stroke-linecap="butt" d="m405.20856 29.272966l0 40.598427l-335.1811 0l0 -40.598427z" fill-rule="nonzero"></path><path fill="#dd7e6b" d="m30.648294 29.272966l39.30709 0l0 40.598427l-39.30709 0z" fill-rule="nonzero"></path><path stroke="#000000" stroke-width="1.0" stroke-linejoin="round" stroke-linecap="butt" d="m30.648294 29.272966l39.30709 0l0 40.598427l-39.30709 0z" fill-rule="nonzero"></path><path fill="#b6d7a8" d="m405.29422 29.272966l39.3071 0l0 40.598427l-39.3071 0z" fill-rule="nonzero"></path><path stroke="#000000" stroke-width="1.0" stroke-linejoin="round" stroke-linecap="butt" d="m405.29422 29.272966l39.3071 0l0 40.598427l-39.3071 0z" fill-rule="nonzero"></path><path fill="#ffe599" d="m30.648294 69.89076l39.30709 0l0 283.33856l-39.30709 0z" fill-rule="nonzero"></path><path stroke="#000000" stroke-width="1.0" stroke-linejoin="round" stroke-linecap="butt" d="m30.648294 69.89076l39.30709 0l0 283.33856l-39.30709 0z" fill-rule="nonzero"></path><path fill="#cfe2f3" d="m70.098236 69.89076l335.0551 0l0 283.33856l-335.0551 0z" fill-rule="nonzero"></path><path stroke="#000000" stroke-width="1.0" stroke-linejoin="round" stroke-linecap="butt" d="m70.098236 69.89076l335.0551 0l0 283.33856l-335.0551 0z" fill-rule="nonzero"></path><path fill="#6fa8dc" d="m70.11286 110.48821l39.307083 0l0 202.14172l-39.307083 0z" fill-rule="nonzero"></path><path stroke="#000000" stroke-width="1.0" stroke-linejoin="round" stroke-linecap="butt" d="m70.11286 110.48821l39.307083 0l0 202.14172l-39.307083 0z" fill-rule="nonzero"></path><path fill="#ffd966" d="m365.98688 110.48821l39.3071 0l0 202.14172l-39.3071 0z" fill-rule="nonzero"></path><path stroke="#000000" stroke-width="1.0" stroke-linejoin="round" stroke-linecap="butt" d="m365.98688 110.48821l39.3071 0l0 202.14172l-39.3071 0z" fill-rule="nonzero"></path><path fill="#c27ba0" d="m366.54068 69.88976l0 40.598427l-256.75592 0l0 -40.598427z" fill-rule="nonzero"></path><path stroke="#000000" stroke-width="1.0" stroke-linejoin="round" stroke-linecap="butt" d="m366.54068 69.88976l0 40.598427l-256.75592 0l0 -40.598427z" fill-rule="nonzero"></path><path fill="#f6b26b" d="m366.37796 312.6299l0 40.59842l-256.8504 0l0 -40.59842z" fill-rule="nonzero"></path><path stroke="#000000" stroke-width="1.0" stroke-linejoin="round" stroke-linecap="butt" d="m366.37796 312.6299l0 40.59842l-256.8504 0l0 -40.59842z" fill-rule="nonzero"></path><path fill="#000000" fill-opacity="0.0" d="m236.98425 89.7664l72.31497 285.19684" fill-rule="nonzero"></path><path stroke="#000000" stroke-width="1.0" stroke-linejoin="round" stroke-linecap="butt" d="m236.98425 89.7664l70.84027 279.38092" fill-rule="evenodd"></path><path fill="#000000" stroke="#000000" stroke-width="1.0" stroke-linecap="butt" d="m306.22345 369.55328l2.7164612 3.99292l0.48565674 -4.8048706z" fill-rule="evenodd"></path><path fill="#000000" fill-opacity="0.0" d="m236.98425 333.93176l-66.67717 -282.11023" fill-rule="nonzero"></path><path stroke="#000000" stroke-width="1.0" stroke-linejoin="round" stroke-linecap="butt" d="m236.98425 333.93176l-65.29709 -276.27112" fill-rule="evenodd"></path><path fill="#000000" stroke="#000000" stroke-width="1.0" stroke-linecap="butt" d="m173.29462 57.280724l-2.6512756 -4.036495l-0.5636139 4.796341z" fill-rule="evenodd"></path><path fill="#000000" fill-opacity="0.0" d="m86.17585 209.28609l337.5118 -57.448822" fill-rule="nonzero"></path><path stroke="#000000" stroke-width="1.0" stroke-linejoin="round" stroke-linecap="butt" d="m86.17585 209.28609l331.59686 -56.442017" fill-rule="evenodd"></path><path fill="#000000" stroke="#000000" stroke-width="1.0" stroke-linecap="butt" d="m418.0499 154.47238l4.196594 -2.389801l-4.7509155 -0.8668213z" fill-rule="evenodd"></path><path fill="#000000" fill-opacity="0.0" d="m385.22833 250.3202l-334.96063 24.629929" fill-rule="nonzero"></path><path stroke="#000000" stroke-width="1.0" stroke-linejoin="round" stroke-linecap="butt" d="m385.22833 250.3202l-328.97678 24.189926" fill-rule="evenodd"></path><path fill="#000000" stroke="#000000" stroke-width="1.0" stroke-linecap="butt" d="m56.130436 272.86285l-4.4047546 1.980072l4.647007 1.3144836z" fill-rule="evenodd"></path><path fill="#93c47d" d="m70.11313 312.6299l39.307083 0l0 40.59842l-39.307083 0z" fill-rule="nonzero"></path><path stroke="#000000" stroke-width="1.0" stroke-linejoin="round" stroke-linecap="butt" d="m70.11313 312.6299l39.307083 0l0 40.59842l-39.307083 0z" fill-rule="nonzero"></path><path fill="#8e7cc3" d="m70.21287 70.20473l39.307083 0l0 40.598427l-39.307083 0z" fill-rule="nonzero"></path><path stroke="#000000" stroke-width="1.0" stroke-linejoin="round" stroke-linecap="butt" d="m70.21287 70.20473l39.307083 0l0 40.598427l-39.307083 0z" fill-rule="nonzero"></path><path fill="#cc4125" d="m365.98688 312.6299l39.3071 0l0 40.59842l-39.3071 0z" fill-rule="nonzero"></path><path stroke="#000000" stroke-width="1.0" stroke-linejoin="round" stroke-linecap="butt" d="m365.98688 312.6299l39.3071 0l0 40.59842l-39.3071 0z" fill-rule="nonzero"></path><path fill="#666666" d="m365.9859 70.20473l39.307068 0l0 40.598427l-39.307068 0z" fill-rule="nonzero"></path><path stroke="#000000" stroke-width="1.0" stroke-linejoin="round" stroke-linecap="butt" d="m365.9859 70.20473l39.307068 0l0 40.598427l-39.307068 0z" fill-rule="nonzero"></path><path fill="#000000" fill-opacity="0.0" d="m389.33072 323.67453l-329.32285 -277.5118" fill-rule="nonzero"></path><path stroke="#000000" stroke-width="1.0" stroke-linejoin="round" stroke-linecap="butt" d="m389.33072 323.67453l-324.73468 -273.64545" fill-rule="evenodd"></path><path fill="#000000" stroke="#000000" stroke-width="1.0" stroke-linecap="butt" d="m65.660416 48.765995l-4.53463 -1.6612282l2.4059105 4.187378z" fill-rule="evenodd"></path><path fill="#000000" fill-opacity="0.0" d="m83.61155 99.51181l341.10236 281.10236" fill-rule="nonzero"></path><path stroke="#000000" stroke-width="1.0" stroke-linejoin="round" stroke-linecap="butt" d="m83.61155 99.51181l336.47208 277.28653" fill-rule="evenodd"></path><path fill="#000000" stroke="#000000" stroke-width="1.0" stroke-linecap="butt" d="m419.03317 378.07303l4.552582 1.6114197l-2.4516907 -4.1607666z" fill-rule="evenodd"></path><path fill="#000000" fill-opacity="0.0" d="m96.94751 337.5223l329.32285 -278.51968" fill-rule="nonzero"></path><path stroke="#000000" stroke-width="1.0" stroke-linejoin="round" stroke-linecap="butt" d="m96.94751 337.5223l324.74155 -274.64514" fill-rule="evenodd"></path><path fill="#000000" stroke="#000000" stroke-width="1.0" stroke-linecap="butt" d="m422.7557 64.13833l2.398407 -4.1916733l-4.5316467 1.6693306z" fill-rule="evenodd"></path><path fill="#000000" fill-opacity="0.0" d="m380.61154 84.637794l-334.96063 282.11023" fill-rule="nonzero"></path><path stroke="#000000" stroke-width="1.0" stroke-linejoin="round" stroke-linecap="butt" d="m380.61154 84.637794l-330.3714 278.24512" fill-rule="evenodd"></path><path fill="#000000" stroke="#000000" stroke-width="1.0" stroke-linecap="butt" d="m49.176105 361.61957l-2.4070244 4.186737l4.5350723 -1.6600342z" fill-rule="evenodd"></path></g></svg>

